<?xml version="1.0" encoding="UTF-8"?>
<svg id="Layer_1" xmlns="http://www.w3.org/2000/svg" version="1.1" viewBox="0 0 1024 1024">
  <!-- Generator: Adobe Illustrator 29.8.4, SVG Export Plug-In . SVG Version: 2.1.1 Build 6)  -->
  <g id="beh1X4">
    <g>
      <path d="M765.05,168.65c23.8,17.25,47.08,38.21,65.73,60.73-12.87-2.93-27.46-3.08-38.48,5.13-11.16,8.31-15.39,29.36-23.12,41.84-11.46,18.52-37.09,36.14-58.91,38.53-118.69,13.02-258.9-39.03-345.18,71.94-12.7,16.34-20.42,41.62-44.56,42.67-25.51,1.11-38.36-6.65-65.31,4.74-70.23,29.69-70.77,131.12-.94,162.25,28.78,12.83,45.3,2.31,71.38,5.55,19.88,2.46,32.5,34.86,45.29,49.96,81.72,96.44,220.06,53.48,330.81,62.85,31.15,2.64,59.43,21.92,73.26,49.82,3.2,6.45,4.68,14.46,8.23,20.89,7.94,14.37,22.18,18.45,38,16.51l1.01,4.3c-28.33,25.69-56.01,50.07-89.08,69.94-164.34,98.76-373.88,75.14-511.87-57.04C77.31,681.31,47.11,462.95,151.41,291.08,280.2,78.86,562.78,22.04,765.05,168.65Z"/>
      <path d="M796.59,735.4c-6.05-1.23-6.68-7.09-10.3-11.08-18.62-20.52-42.45-34-69.63-39.76-69.15-4.48-143,4.44-211.6-.38-79.02-5.55-146.34-67.81-145.25-148.78,17.3,22.55,37.43,41.72,62.66,55.29,17.67,9.5,41.05,18.52,60.91,21.15,86.9,11.52,187.8-6.23,274.73,2.2,12.47,1.21,29.74,7.22,38.48,16.23v105.13Z"/>
      <path d="M873.51,581.54v-131.63c81.78,9.19,80.89,121.2,0,131.63Z"/>
      <path d="M313.88,486.47c16.14,12.12,16.86,38.59,4.01,53.14-16.22,18.37-47.25,16.01-59.01-5.84-19.62-36.45,22.95-71.37,55.01-47.3Z"/>
    </g>
  </g>
</svg>